HIERARCHY
ROOT SpineBase
{
  OFFSET 0.000000 0.000000 0.000000
  CHANNELS 6 Xposition Yposition Zposition Zrotation Xrotation Yrotation
  JOINT SpineMid
  {
    OFFSET 0.000000 33.233071 -0.000000
    CHANNELS 3 Zrotation Xrotation Yrotation
    JOINT SpineShoulder
    {
      OFFSET -0.343889 24.778669 -0.595454
      CHANNELS 3 Zrotation Xrotation Yrotation
      JOINT Neck
      {
        OFFSET -0.143953 8.208000 -0.550407
        CHANNELS 3 Zrotation Xrotation Yrotation
        JOINT Head
        {
          OFFSET 2.176213 12.871305 6.064199
          CHANNELS 3 Zrotation Xrotation Yrotation
          End Site
          {
            OFFSET 0 0 0
          }
        }
      }
      JOINT ShoulderLeft
      {
        OFFSET -6.997964 -7.231124 20.954566
        CHANNELS 3 Zrotation Xrotation Yrotation
        JOINT ElbowLeft
        {
          OFFSET -4.242142 -21.867657 11.842075
          CHANNELS 3 Zrotation Xrotation Yrotation
          JOINT WristLeft
          {
            OFFSET -10.078705 -14.008276 -26.151963
            CHANNELS 3 Zrotation Xrotation Yrotation
            JOINT HandLeft
            {
              OFFSET -3.355284 -4.701729 -8.307148
              CHANNELS 3 Zrotation Xrotation Yrotation
              JOINT HandTipLeft
              {
                OFFSET -1.187751 -1.318511 -1.346440
                CHANNELS 3 Zrotation Xrotation Yrotation
                End Site
                {
                  OFFSET 0 0 0
                }
              }
              JOINT ThumbLeft
              {
                OFFSET 0.059622 0.327883 -2.414102
                CHANNELS 3 Zrotation Xrotation Yrotation
                End Site
                {
                  OFFSET 0 0 0
                }
              }
            }
          }
        }
      }
      JOINT ShoulderRight
      {
        OFFSET 4.060941 -6.115958 -12.869264
        CHANNELS 3 Zrotation Xrotation Yrotation
        JOINT ElbowRight
        {
          OFFSET 4.937259 -27.385039 -5.081743
          CHANNELS 3 Zrotation Xrotation Yrotation
          JOINT WristRight
          {
            OFFSET -6.724400 -21.699905 -3.325923
            CHANNELS 3 Zrotation Xrotation Yrotation
            JOINT HandRight
            {
              OFFSET -2.591281 -5.912221 -0.314297
              CHANNELS 3 Zrotation Xrotation Yrotation
              JOINT HandTipRight
              {
                OFFSET -2.834150 -6.351196 -0.992517
                CHANNELS 3 Zrotation Xrotation Yrotation
                End Site
                {
                  OFFSET 0 0 0
                }
              }
              JOINT ThumbRight
              {
                OFFSET 2.456260 -1.774493 -2.113853
                CHANNELS 3 Zrotation Xrotation Yrotation
                End Site
                {
                  OFFSET 0 0 0
                }
              }
            }
          }
        }
      }
    }
  }
  JOINT HipLeft
  {
    OFFSET -2.075379 -0.547297 2.220345
    CHANNELS 3 Zrotation Xrotation Yrotation
    JOINT KneeLeft
    {
      OFFSET -6.177112 -29.413427 15.057879
      CHANNELS 3 Zrotation Xrotation Yrotation
      JOINT AnkleLeft
      {
        OFFSET 18.366595 -42.141342 -6.514521
        CHANNELS 3 Zrotation Xrotation Yrotation
        JOINT FootLeft
        {
          OFFSET -0.053828 -9.025437 -0.406636
          CHANNELS 3 Zrotation Xrotation Yrotation
          End Site
          {
            OFFSET 0 0 0
          }
        }
      }
    }
  }
  JOINT HipRight
  {
    OFFSET 1.702837 1.746128 -9.488722
    CHANNELS 3 Zrotation Xrotation Yrotation
    JOINT KneeRight
    {
      OFFSET 8.957341 -37.822729 -6.439616
      CHANNELS 3 Zrotation Xrotation Yrotation
      JOINT AnkleRight
      {
        OFFSET 9.891062 -34.822284 -5.477377
        CHANNELS 3 Zrotation Xrotation Yrotation
        JOINT FootRight
        {
          OFFSET -5.673360 -6.589738 -5.158016
          CHANNELS 3 Zrotation Xrotation Yrotation
          End Site
          {
            OFFSET 0 0 0
          }
        }
      }
    }
  }
}
MOTION
Frames: 6
Frame Time: 0.033333
25.874475 82.643049 317.563448 8.730270 4.680395 66.450527 -1.738319 1.729067 -66.597896 -0.691840 -0.726195 0.246180 4.071439 -3.958345 -4.565037 0.000000 0.000000 0.000000 -5.776087 -3.004219 -0.591429 -0.000000 0.000000 0.000000 -0.000000 0.000000 0.000000 0.887153 -0.220688 -0.711807 0.000000 0.000000 0.000000 0.000000 0.000000 0.000000 -11.403986 -0.804374 0.663251 6.427182 0.353788 -2.251893 13.112394 -10.681001 5.694734 -25.852453 17.227650 -0.739188 0.000000 0.000000 0.000000 0.000000 0.000000 0.000000 21.079551 -4.655265 -59.432854 -64.472446 -26.811970 -31.800851 -79.819488 16.007028 53.658808 0.000000 0.000000 0.000000 -21.154587 22.864222 -60.423129 19.822133 -7.487181 -6.435566 -20.112105 15.392811 15.930012 0.000000 0.000000 0.000000
26.799892 82.623810 317.823961 9.482851 3.883525 67.626434 -1.133868 1.768070 -67.742494 -0.842446 -0.458896 0.268320 3.246968 -4.143614 -4.595424 0.000000 0.000000 0.000000 -6.594745 -2.989974 -0.666967 -0.000000 0.000000 0.000000 -0.000000 0.000000 0.000000 0.924488 -0.293834 -0.683778 0.000000 0.000000 0.000000 0.000000 0.000000 0.000000 -12.248908 -0.362785 0.691245 6.435685 -0.448188 -2.187588 13.293453 -8.804818 4.587512 -25.994925 14.591423 -0.365081 0.000000 0.000000 0.000000 0.000000 0.000000 0.000000 23.347157 -0.773213 -64.251685 -62.039671 -33.790478 -35.061432 -71.661480 12.553699 45.429940 0.000000 0.000000 0.000000 -20.609487 25.276161 -60.837320 20.910835 -7.931194 -6.681004 -19.874688 15.303130 15.779428 0.000000 0.000000 0.000000
27.500398 82.599131 318.114546 10.283375 3.206392 67.229185 -1.051833 2.121399 -67.317496 -0.642413 -0.060487 0.295020 3.281237 -3.983619 -5.010766 0.000000 0.000000 0.000000 -7.301413 -2.925854 -0.727880 -0.000000 0.000000 0.000000 -0.000000 0.000000 0.000000 0.929793 -0.291530 -0.691366 0.000000 0.000000 0.000000 0.000000 0.000000 0.000000 -12.870257 0.078077 0.709505 6.573428 -1.028510 -2.183046 14.343024 -7.779124 4.079257 -25.774025 12.872432 -0.399468 0.000000 0.000000 0.000000 0.000000 0.000000 0.000000 22.887397 3.901883 -67.755926 -53.801478 -39.350731 -33.153226 -56.703385 16.405008 38.190725 0.000000 0.000000 0.000000 -20.605625 27.226188 -59.621702 21.931591 -8.595053 -6.899970 -19.649793 15.195083 15.590315 0.000000 0.000000 0.000000
26.347661 82.247088 318.699436 8.960207 2.373088 66.012193 -0.598422 1.362874 -66.009446 -0.104122 0.356551 0.304884 4.308447 -3.462181 -5.600273 0.000000 0.000000 0.000000 -7.391298 -2.666462 -0.715047 -0.000000 0.000000 0.000000 -0.000000 0.000000 0.000000 0.935929 -0.289812 -0.699280 0.000000 0.000000 0.000000 0.000000 0.000000 0.000000 -12.930167 0.761091 0.840286 7.115481 -1.584817 -2.257274 14.641277 -6.487525 3.409585 -25.163711 11.489093 -0.638509 0.000000 0.000000 0.000000 0.000000 0.000000 0.000000 21.832341 7.155530 -69.286076 -40.552187 -42.609822 -26.359020 -37.054554 19.010678 27.199373 0.000000 0.000000 0.000000 -18.162289 24.953570 -59.293587 20.341019 -9.144317 -6.605676 -19.764466 15.197349 15.555939 0.000000 0.000000 0.000000
24.267851 81.648066 319.549197 6.929165 1.462261 63.524825 -0.279768 0.628897 -63.451574 0.525839 0.769322 0.284509 5.137949 -2.897568 -5.731219 0.000000 0.000000 0.000000 -6.785397 -2.203896 -0.624707 -0.000000 0.000000 0.000000 -0.000000 0.000000 0.000000 0.941670 -0.286259 -0.708459 0.000000 0.000000 0.000000 0.000000 0.000000 0.000000 -12.078548 1.403841 0.973258 7.269325 -1.582752 -2.346756 15.150564 -5.655523 2.984750 -23.211795 10.740521 -1.386201 0.000000 0.000000 0.000000 0.000000 0.000000 0.000000 19.625198 9.221117 -68.113426 -24.799577 -41.192335 -16.417749 -20.689383 14.271047 16.055801 0.000000 0.000000 0.000000 -14.118912 21.173060 -58.157023 17.435766 -10.702193 -6.199077 -20.160342 15.369876 15.645795 0.000000 0.000000 0.000000
22.231999 80.626625 320.422659 5.215135 0.645901 62.314886 -0.155360 0.389333 -62.223197 0.911372 1.024983 0.242605 5.698081 -2.317513 -5.495217 0.000000 0.000000 0.000000 -5.720246 -1.674480 -0.496881 -0.000000 0.000000 0.000000 -0.000000 0.000000 0.000000 0.947445 -0.282594 -0.717775 0.000000 0.000000 0.000000 0.000000 0.000000 0.000000 -10.731820 2.054881 1.124633 7.289007 -1.292664 -2.488176 15.571577 -5.335655 2.859583 -21.510500 7.394886 -0.835189 0.000000 0.000000 0.000000 0.000000 0.000000 0.000000 16.304836 9.002142 -66.455341 -12.988525 -34.136302 -8.391890 -19.163228 7.080553 11.044024 0.000000 0.000000 0.000000 -9.846275 18.243206 -57.978414 14.783978 -12.367291 -5.920878 -20.710878 15.622687 15.772438 0.000000 0.000000 0.000000
